<svg width="319" height="319" viewBox="0 0 319 319" fill="none" xmlns="http://www.w3.org/2000/svg">
<g clip-path="url(#clip0_1168_1997)">
<path d="M303.409 151.962H288.318V242.704H303.409V151.962Z" fill="black"/>
<path d="M288.318 242.7H273.227V257.89H288.318V242.7Z" fill="black"/>
<path d="M288.318 136.864H273.227V151.954H288.318V136.864Z" fill="black"/>
<path d="M273.229 167.05H258.039V227.611H273.229V167.05Z" fill="black"/>
<path d="M273.229 272.977V257.887H242.949V242.697H258.039V227.606H242.949V167.045H258.039V151.954H242.949V136.864H273.229V121.674H242.949V106.583H227.858V272.977H273.229Z" fill="black"/>
<path d="M227.858 272.981H197.578V288.071H227.858V272.981Z" fill="black"/>
<path d="M197.578 288.069H167.297V303.259H197.578V288.069Z" fill="black"/>
<path d="M197.577 46.0219V30.9313H182.387V15.7414H167.297V30.9313H152.206V46.0219H197.577Z" fill="black"/>
<path d="M167.297 212.419H152.206V227.609H167.297V212.419Z" fill="black"/>
<path d="M167.296 182.233H152.205V197.324H167.296V182.233Z" fill="black"/>
<path d="M167.295 303.261H91.6438V318.352H167.295V303.261Z" fill="black"/>
<path d="M152.206 227.611H106.835V242.702H152.206V227.611Z" fill="black"/>
<path d="M106.835 121.674H76.5541V136.864H182.387V121.674H212.668V106.583H227.858V91.3932H212.668V46.022H197.577V61.2119H152.206V46.022H137.016V76.3025H106.835V121.674ZM182.387 76.3025H197.577V106.583H182.387V76.3025ZM152.206 76.3025H167.296V121.674H152.206V76.3025Z" fill="black"/>
<path d="M106.834 212.419H91.6438V227.609H106.834V212.419Z" fill="black"/>
<path d="M106.834 182.233H91.6438V197.324H106.834V182.233Z" fill="black"/>
<path d="M106.835 46.022H91.6449V76.3025H106.835V46.022Z" fill="black"/>
<path d="M91.6449 288.069H61.3643V303.259H91.6449V288.069Z" fill="black"/>
<path d="M91.6447 106.581V91.3911H61.3641V106.581H46.2735V121.672H76.554V106.581H91.6447Z" fill="black"/>
<path d="M91.6447 15.7414H76.5541V46.0219H91.6447V15.7414Z" fill="black"/>
<path d="M76.554 0.652893H46.2735V15.7435H76.554V0.652893Z" fill="black"/>
<path d="M61.3639 272.981H31.1827V288.071H61.3639V272.981Z" fill="black"/>
<path d="M46.2733 15.7414H31.1827V30.9313H46.2733V15.7414Z" fill="black"/>
<path d="M31.1828 106.585H46.2734V76.3048H61.364V61.2141H31.1828V91.3954H15.9929V272.979H31.1828V106.585Z" fill="black"/>
<path d="M31.1828 30.9335H15.9929V61.2141H31.1828V30.9335Z" fill="black"/>
</g>
<defs>
<clipPath id="clip0_1168_1997">
<rect width="317.697" height="317.697" fill="white" transform="translate(0.85022 0.652893)"/>
</clipPath>
</defs>
</svg>
