<svg width="32" height="32" viewBox="0 0 32 32" fill="none" xmlns="http://www.w3.org/2000/svg">
<g clip-path="url(#clip0_1138_60486)">
<path d="M32 3.04999H30.47V28.95H32V3.04999Z" fill="#000001"/>
<path d="M30.47 28.95H28.95V30.48H30.47V28.95Z" fill="#000001"/>
<path d="M30.47 1.52002H28.95V3.05002H30.47V1.52002Z" fill="#000001"/>
<path d="M28.95 30.48H3.04001V32H28.95V30.48Z" fill="#000001"/>
<path d="M27.42 4.56999H25.9V3.04999H6.09001V4.56999H4.57001V6.08999H3.04001V25.9H4.57001V27.43H6.09001V28.95H25.9V27.43H27.42V25.9H28.95V6.08999H27.42V4.56999ZM25.9 24.38H24.38V25.9H7.61001V24.38H6.09001V7.61999H7.61001V6.08999H24.38V7.61999H25.9V24.38Z" fill="#000001"/>
<path d="M24.38 7.62H21.33V10.67H24.38V7.62Z" fill="#000001"/>
<path d="M21.33 12.19H19.81V10.67H12.19V12.19H10.66V13.71H9.14001V21.33H10.66V22.86H12.19V24.38H19.81V22.86H21.33V21.33H22.85V13.71H21.33V12.19ZM19.81 19.81H18.28V21.33H13.71V19.81H12.19V15.24H13.71V13.71H18.28V15.24H19.81V19.81Z" fill="#000001"/>
<path d="M28.95 0H3.04001V1.52H28.95V0Z" fill="#000001"/>
<path d="M3.03999 28.95H1.51999V30.48H3.03999V28.95Z" fill="#000001"/>
<path d="M3.03999 1.52002H1.51999V3.05002H3.03999V1.52002Z" fill="#000001"/>
<path d="M1.52 3.04999H0V28.95H1.52V3.04999Z" fill="#000001"/>
</g>
<defs>
<clipPath id="clip0_1138_60486">
<rect width="32" height="32" fill="white"/>
</clipPath>
</defs>
</svg>
