<svg aria-hidden="true" style="position: absolute; width: 0; height: 0; overflow: hidden;" version="1.1" xmlns="http://www.w3.org/2000/svg" xmlns:xlink="http://www.w3.org/1999/xlink">
<defs>
<symbol id="icon-left" viewBox="0 0 32 32">
<path d="M29.333 17.333v-1.333h-6.667v-5.333h1.333v-1.333h2.667v-1.333h1.333v-4h-1.333v-1.333h-2.667v1.333h-2.667v1.333h-1.333v1.333h-1.333v2.667h-1.333v18.667h1.333v1.333h10.667v-1.333h1.333v-10.667h-1.333zM20 17.333h1.333v1.333h6.667v8h-8v-9.333z"></path>
<path d="M13.333 17.333v-1.333h-6.667v-5.333h1.333v-1.333h2.667v-1.333h1.333v-4h-1.333v-1.333h-2.667v1.333h-2.667v1.333h-1.333v1.333h-1.333v2.667h-1.333v18.667h1.333v1.333h10.667v-1.333h1.333v-10.667h-1.333zM4 17.333h1.333v1.333h6.667v8h-8v-9.333z"></path>
</symbol>
<symbol id="icon-right" viewBox="0 0 32 32">
<path d="M13.333 2.667h-10.667v1.333h-1.333v10.667h1.333v1.333h6.667v5.333h-1.333v1.333h-2.667v1.333h-1.333v4h1.333v1.333h2.667v-1.333h2.667v-1.333h1.333v-1.333h1.333v-2.667h1.333v-18.667h-1.333v-1.333zM12 14.667h-1.333v-1.333h-6.667v-8h8v9.333z"></path>
<path d="M29.333 4v-1.333h-10.667v1.333h-1.333v10.667h1.333v1.333h6.667v5.333h-1.333v1.333h-2.667v1.333h-1.333v4h1.333v1.333h2.667v-1.333h2.667v-1.333h1.333v-1.333h1.333v-2.667h1.333v-18.667h-1.333zM20 13.333v-8h8v9.333h-1.333v-1.333h-6.667z"></path>
</symbol>
<symbol id="icon-hangout" viewBox="0 0 32 32">
<path d="M15.994 0c-7.631 0-13.819 6.188-13.819 13.819 0 7.231 6.588 13.094 13.819 13.094v5.087c8.394-4.256 13.831-11.113 13.831-18.181 0-7.631-6.2-13.819-13.831-13.819zM14 16c0 1.656-0.894 3-2 3v-3h-4v-6h6v6zM24 16c0 1.656-0.894 3-2 3v-3h-4v-6h6v6z"></path>
</symbol>
</defs>
</svg>
