<svg aria-hidden="true" style="position: absolute; width: 0; height: 0; overflow: hidden;" version="1.1" xmlns="http://www.w3.org/2000/svg" xmlns:xlink="http://www.w3.org/1999/xlink">
<defs>
<symbol id="icon-Content-Files-Pencil-Ruler" viewBox="0 0 32 32">
<path d="M30.436 15.244h-1.514v9.103h1.514v-9.103z"></path>
<path d="M28.922 24.346h-1.514v1.524h1.514v-1.524z"></path>
<path d="M28.922 13.729h-1.514v1.514h1.514v-1.514z"></path>
<path d="M27.409 16.757h-1.524v6.075h1.524v-6.075z"></path>
<path d="M27.409 27.383v-1.514h-3.038v-1.524h1.514v-1.514h-1.514v-6.075h1.514v-1.514h-1.514v-1.514h3.038v-1.524h-3.038v-1.514h-1.514v16.692h4.551z"></path>
<path d="M22.857 27.384h-3.038v1.514h3.038v-1.514z"></path>
<path d="M19.82 28.897h-3.038v1.524h3.038v-1.524z"></path>
<path d="M19.82 4.617v-1.514h-1.524v-1.524h-1.514v1.524h-1.514v1.514h4.551z"></path>
<path d="M16.782 21.308h-1.514v1.524h1.514v-1.524z"></path>
<path d="M16.782 18.28h-1.514v1.514h1.514v-1.514z"></path>
<path d="M16.782 30.421h-7.589v1.514h7.589v-1.514z"></path>
<path d="M15.268 22.832h-4.551v1.514h4.551v-1.514z"></path>
<path d="M10.717 12.206h-3.038v1.524h10.616v-1.524h3.038v-1.514h1.524v-1.524h-1.524v-4.551h-1.514v1.524h-4.551v-1.524h-1.524v3.038h-3.028v4.551zM18.296 7.654h1.524v3.038h-1.524v-3.038zM15.268 7.654h1.514v4.551h-1.514v-4.551z"></path>
<path d="M10.717 21.308h-1.524v1.524h1.524v-1.524z"></path>
<path d="M10.717 18.28h-1.524v1.514h1.524v-1.514z"></path>
<path d="M10.717 4.617h-1.524v3.038h1.524v-3.038z"></path>
<path d="M9.193 28.897h-3.038v1.524h3.038v-1.524z"></path>
<path d="M9.193 10.691v-1.524h-3.038v1.524h-1.514v1.514h3.038v-1.514h1.514z"></path>
<path d="M9.193 1.579h-1.514v3.038h1.514v-3.038z"></path>
<path d="M7.679 0.066h-3.038v1.514h3.038v-1.514z"></path>
<path d="M6.156 27.384h-3.028v1.514h3.028v-1.514z"></path>
<path d="M4.642 1.579h-1.514v1.524h1.514v-1.524z"></path>
<path d="M3.128 10.692h1.514v-3.037h1.514v-1.514h-3.028v3.028h-1.524v18.215h1.524v-16.692z"></path>
<path d="M3.128 3.103h-1.524v3.038h1.524v-3.038z"></path>
</symbol>
<symbol id="icon-hangout" viewBox="0 0 32 32">
<path d="M15.994 0c-7.631 0-13.819 6.188-13.819 13.819 0 7.231 6.588 13.094 13.819 13.094v5.087c8.394-4.256 13.831-11.113 13.831-18.181 0-7.631-6.2-13.819-13.831-13.819zM14 16c0 1.656-0.894 3-2 3v-3h-4v-6h6v6zM24 16c0 1.656-0.894 3-2 3v-3h-4v-6h6v6z"></path>
</symbol>
</defs>
</svg>
